<svg aria-hidden="true" style="position: absolute; width: 0; height: 0; overflow: hidden;" version="1.1"
    xmlns="http://www.w3.org/2000/svg" xmlns:xlink="http://www.w3.org/1999/xlink">
    <defs>
      <!-- icons generated by IcoMoon.io -->
      <symbol id="icon-email" viewBox="0 0 32 32">
        <path
          d="M31.781 20.375l-8-10c-0.19-0.237-0.477-0.375-0.781-0.375h-14c-0.304 0-0.591 0.138-0.781 0.375l-8 10c-0.142 0.177-0.219 0.398-0.219 0.625v9c0 1.105 0.895 2 2 2h28c1.105 0 2-0.895 2-2v-9c0-0.227-0.077-0.447-0.219-0.625zM30 22h-7l-4 4h-6l-4-4h-7v-0.649l7.481-9.351h13.039l7.481 9.351v0.649z">
        </path>
        <path d="M23 16h-14c-0.552 0-1-0.448-1-1s0.448-1 1-1h14c0.552 0 1 0.448 1 1s-0.448 1-1 1z"></path>
        <path d="M25 20h-18c-0.552 0-1-0.448-1-1s0.448-1 1-1h18c0.552 0 1 0.448 1 1s-0.448 1-1 1z"></path>
      </symbol>
      <symbol id="icon-Twitter" viewBox="0 0 32 32">
        <title>twitter</title>
        <path
          d="M32 7.075c-1.175 0.525-2.444 0.875-3.769 1.031 1.356-0.813 2.394-2.1 2.887-3.631-1.269 0.75-2.675 1.3-4.169 1.594-1.2-1.275-2.906-2.069-4.794-2.069-3.625 0-6.563 2.938-6.563 6.563 0 0.512 0.056 1.012 0.169 1.494-5.456-0.275-10.294-2.888-13.531-6.862-0.563 0.969-0.887 2.1-0.887 3.3 0 2.275 1.156 4.287 2.919 5.463-1.075-0.031-2.087-0.331-2.975-0.819 0 0.025 0 0.056 0 0.081 0 3.181 2.263 5.838 5.269 6.437-0.55 0.15-1.131 0.231-1.731 0.231-0.425 0-0.831-0.044-1.237-0.119 0.838 2.606 3.263 4.506 6.131 4.563-2.25 1.762-5.075 2.813-8.156 2.813-0.531 0-1.050-0.031-1.569-0.094 2.913 1.869 6.362 2.95 10.069 2.95 12.075 0 18.681-10.006 18.681-18.681 0-0.287-0.006-0.569-0.019-0.85 1.281-0.919 2.394-2.075 3.275-3.394z">
        </path>
      </symbol>
      <symbol id="icon-GitHub" viewBox="0 0 32 32">
        <title>github</title>
        <path
          d="M16 0.395c-8.836 0-16 7.163-16 16 0 7.069 4.585 13.067 10.942 15.182 0.8 0.148 1.094-0.347 1.094-0.77 0-0.381-0.015-1.642-0.022-2.979-4.452 0.968-5.391-1.888-5.391-1.888-0.728-1.849-1.776-2.341-1.776-2.341-1.452-0.993 0.11-0.973 0.11-0.973 1.606 0.113 2.452 1.649 2.452 1.649 1.427 2.446 3.743 1.739 4.656 1.33 0.143-1.034 0.558-1.74 1.016-2.14-3.554-0.404-7.29-1.777-7.29-7.907 0-1.747 0.625-3.174 1.649-4.295-0.166-0.403-0.714-2.030 0.155-4.234 0 0 1.344-0.43 4.401 1.64 1.276-0.355 2.645-0.532 4.005-0.539 1.359 0.006 2.729 0.184 4.008 0.539 3.054-2.070 4.395-1.64 4.395-1.64 0.871 2.204 0.323 3.831 0.157 4.234 1.026 1.12 1.647 2.548 1.647 4.295 0 6.145-3.743 7.498-7.306 7.895 0.574 0.497 1.085 1.47 1.085 2.963 0 2.141-0.019 3.864-0.019 4.391 0 0.426 0.288 0.925 1.099 0.768 6.354-2.118 10.933-8.113 10.933-15.18 0-8.837-7.164-16-16-16z">
        </path>
      </symbol>
      <symbol id="icon-LinkedIn" viewBox="0 0 32 32">
        <title>linkedin</title>
        <path
          d="M12 12h5.535v2.837h0.079c0.77-1.381 2.655-2.837 5.464-2.837 5.842 0 6.922 3.637 6.922 8.367v9.633h-5.769v-8.54c0-2.037-0.042-4.657-3.001-4.657-3.005 0-3.463 2.218-3.463 4.509v8.688h-5.767v-18z">
        </path>
        <path d="M2 12h6v18h-6v-18z"></path>
        <path d="M8 7c0 1.657-1.343 3-3 3s-3-1.343-3-3c0-1.657 1.343-3 3-3s3 1.343 3 3z"></path>
      </symbol>
      <symbol id="icon-GScholar" viewBox="0 0 32 32">
        <title>google</title>
        <path
          d="M16.319 13.713v5.487h9.075c-0.369 2.356-2.744 6.9-9.075 6.9-5.463 0-9.919-4.525-9.919-10.1s4.456-10.1 9.919-10.1c3.106 0 5.188 1.325 6.375 2.469l4.344-4.181c-2.788-2.612-6.4-4.188-10.719-4.188-8.844 0-16 7.156-16 16s7.156 16 16 16c9.231 0 15.363-6.494 15.363-15.631 0-1.050-0.113-1.85-0.25-2.65l-15.113-0.006z">
        </path>
      </symbol>
      <symbol id="icon-OrcID" viewBox="0 0 32 32">
        <title>orcid</title>
        <path
          d="M16 0c-8.837 0-16 7.163-16 16s7.163 16 16 16 16-7.163 16-16-7.163-16-16-16zM9.825 5.837c0.7 0 1.263 0.575 1.263 1.263s-0.563 1.263-1.263 1.263c-0.696-0.002-1.26-0.566-1.263-1.262v-0c0-0.7 0.563-1.263 1.263-1.263zM8.863 9.888h1.925v13.388h-1.925zM13.612 9.888h5.2c4.949 0 7.125 3.537 7.125 6.7 0 3.437-2.688 6.7-7.1 6.7h-5.225zM15.537 11.625v9.925h3.063c4.363 0 5.363-3.312 5.363-4.963 0-2.688-1.712-4.963-5.463-4.963z">
        </path>
      </symbol>
      <symbol id="icon-rss" viewBox="0 0 100 100">
        <title>rss</title>
        <path
          d="M17.1,70.8c-6.7,0-12,5.5-12,12.1c0,6.7,5.3,12.1,12,12.1c6.7,0,12.1-5.3,12.1-12.1C29.1,76.3,23.7,70.8,17.1,70.8 L17.1,70.8z M5.8,36v15.8c11.3,0.2,21.8,4.6,29.8,12.6c8,8.1,12.4,18.6,12.6,29.9h15.9C63.6,62.3,37.8,36.3,5.8,36L5.8,36z M5.9,5 v15.8C46,21.2,78.7,54,79.2,94.3H95C94.6,45.3,54.8,5.4,5.9,5z">
        </path>
      </symbol>
    </defs>
  </svg>